<svg width="200" height="200" viewBox="0 0 200 200" fill="none" xmlns="http://www.w3.org/2000/svg">
  <!-- Background Circle -->
  <circle cx="100" cy="100" r="95" fill="#00331C" opacity="0.05"/>
  
  <!-- Main Shield Shape -->
  <path d="M100 30 L140 50 L140 110 C140 130 120 145 100 155 C80 145 60 130 60 110 L60 50 Z" 
        fill="#00331C" 
        stroke="#7FE5B8" 
        stroke-width="2"/>
  
  <!-- Inner Heart/Money Symbol -->
  <path d="M85 75 C85 70 88 67 92 67 C95 67 97 69 100 72 C103 69 105 67 108 67 C112 67 115 70 115 75 C115 82 100 95 100 95 C100 95 85 82 85 75 Z" 
        fill="#7FE5B8"/>
  
  <!-- Accent Lines (representing data/analysis) -->
  <line x1="75" y1="115" x2="95" y2="115" stroke="#7FE5B8" stroke-width="2" stroke-linecap="round"/>
  <line x1="75" y1="125" x2="110" y2="125" stroke="#7FE5B8" stroke-width="2" stroke-linecap="round"/>
  <line x1="75" y1="135" x2="100" y2="135" stroke="#7FE5B8" stroke-width="2" stroke-linecap="round"/>
  
  <!-- Small dots for tech feel -->
  <circle cx="120" cy="115" r="2" fill="#7FE5B8"/>
  <circle cx="120" cy="125" r="2" fill="#7FE5B8"/>
</svg>
